<?xml version="1.0" encoding="UTF-8" standalone="no"?>
<!DOCTYPE svg PUBLIC "-//W3C//DTD SVG 1.1//EN"
 "http://www.w3.org/Graphics/SVG/1.1/DTD/svg11.dtd">
<!-- Generated by graphviz version 2.40.1 (20161225.0304)
 -->
<!-- Title: HybridAssembly_DAG Pages: 1 -->
<svg width="1826pt" height="1023pt"
 viewBox="0.00 0.00 1825.65 1023.00" xmlns="http://www.w3.org/2000/svg" xmlns:xlink="http://www.w3.org/1999/xlink">
<g id="graph0" class="graph" transform="scale(1 1) rotate(0) translate(4 1019)">
<title>HybridAssembly_DAG</title>
<polygon fill="#ffffff" stroke="transparent" points="-4,4 -4,-1019 1821.6506,-1019 1821.6506,4 -4,4"/>
<!-- p0 -->
<g id="node1" class="node">
<title>p0</title>
<ellipse fill="#000000" stroke="#000000" cx="82.9016" cy="-994.6" rx="3.6" ry="3.6"/>
<text text-anchor="middle" x="40.6175" y="-1002.4" font-family="Arial,Sans" font-size="14.00" fill="#000000">Channel.from</text>
</g>
<!-- p1 -->
<g id="node2" class="node">
<title>p1</title>
<ellipse fill="none" stroke="#000000" cx="82.9016" cy="-950.5" rx="3.5" ry="3.5"/>
<text text-anchor="middle" x="56.4591" y="-958.2" font-family="Arial,Sans" font-size="14.00" fill="#000000">ifEmpty</text>
</g>
<!-- p0&#45;&gt;p1 -->
<g id="edge1" class="edge">
<title>p0&#45;&gt;p1</title>
<path fill="none" stroke="#000000" d="M82.9016,-990.8401C82.9016,-985.0469 82.9016,-973.644 82.9016,-964.4354"/>
<polygon fill="#000000" stroke="#000000" points="86.4017,-964.2504 82.9016,-954.2504 79.4017,-964.2505 86.4017,-964.2504"/>
</g>
<!-- p2 -->
<g id="node3" class="node">
<title>p2</title>
<ellipse fill="none" stroke="#000000" cx="82.9016" cy="-906.5" rx="3.5" ry="3.5"/>
<text text-anchor="middle" x="56.4528" y="-914.2" font-family="Arial,Sans" font-size="14.00" fill="#000000">splitCsv</text>
</g>
<!-- p1&#45;&gt;p2 -->
<g id="edge2" class="edge">
<title>p1&#45;&gt;p2</title>
<path fill="none" stroke="#000000" d="M82.9016,-946.7486C82.9016,-940.9686 82.9016,-929.5915 82.9016,-920.4038"/>
<polygon fill="#000000" stroke="#000000" points="86.4017,-920.2419 82.9016,-910.2419 79.4017,-920.242 86.4017,-920.2419"/>
</g>
<!-- p3 -->
<g id="node4" class="node">
<title>p3</title>
<ellipse fill="none" stroke="#000000" cx="82.9016" cy="-862.5" rx="3.5" ry="3.5"/>
<text text-anchor="middle" x="67.349" y="-870.2" font-family="Arial,Sans" font-size="14.00" fill="#000000">map</text>
</g>
<!-- p2&#45;&gt;p3 -->
<g id="edge3" class="edge">
<title>p2&#45;&gt;p3</title>
<path fill="none" stroke="#000000" d="M82.9016,-902.7486C82.9016,-896.9686 82.9016,-885.5915 82.9016,-876.4038"/>
<polygon fill="#000000" stroke="#000000" points="86.4017,-876.2419 82.9016,-866.2419 79.4017,-876.242 86.4017,-876.2419"/>
</g>
<!-- p4 -->
<g id="node5" class="node">
<title>p4</title>
<ellipse fill="none" stroke="#000000" cx="82.9016" cy="-788.2" rx="45.7887" ry="18"/>
<text text-anchor="middle" x="82.9016" y="-784" font-family="Arial,Sans" font-size="14.00" fill="#000000">seqpurge</text>
</g>
<!-- p3&#45;&gt;p4 -->
<g id="edge4" class="edge">
<title>p3&#45;&gt;p4</title>
<path fill="none" stroke="#000000" d="M82.9016,-858.9164C82.9016,-851.2595 82.9016,-832.6817 82.9016,-816.489"/>
<polygon fill="#000000" stroke="#000000" points="86.4017,-816.3312 82.9016,-806.3313 79.4017,-816.3313 86.4017,-816.3312"/>
<text text-anchor="middle" x="94.9521" y="-828.4" font-family="Arial,Sans" font-size="14.00" fill="#000000">files</text>
</g>
<!-- p5 -->
<g id="node6" class="node">
<title>p5</title>
<ellipse fill="none" stroke="#000000" cx="82.9016" cy="-699.4" rx="82.8032" ry="18"/>
<text text-anchor="middle" x="82.9016" y="-695.2" font-family="Arial,Sans" font-size="14.00" fill="#000000">sample_shortreads</text>
</g>
<!-- p4&#45;&gt;p5 -->
<g id="edge5" class="edge">
<title>p4&#45;&gt;p5</title>
<path fill="none" stroke="#000000" d="M82.9016,-769.8006C82.9016,-757.6949 82.9016,-741.6076 82.9016,-727.8674"/>
<polygon fill="#000000" stroke="#000000" points="86.4017,-727.472 82.9016,-717.472 79.4017,-727.4721 86.4017,-727.472"/>
<text text-anchor="middle" x="117.8897" y="-739.6" font-family="Arial,Sans" font-size="14.00" fill="#000000">files_purged</text>
</g>
<!-- p6 -->
<g id="node7" class="node">
<title>p6</title>
<ellipse fill="none" stroke="#000000" cx="82.9016" cy="-610.6" rx="46.9342" ry="18"/>
<text text-anchor="middle" x="82.9016" y="-606.4" font-family="Arial,Sans" font-size="14.00" fill="#000000">porechop</text>
</g>
<!-- p5&#45;&gt;p6 -->
<g id="edge6" class="edge">
<title>p5&#45;&gt;p6</title>
<path fill="none" stroke="#000000" d="M82.9016,-681.0006C82.9016,-668.8949 82.9016,-652.8076 82.9016,-639.0674"/>
<polygon fill="#000000" stroke="#000000" points="86.4017,-638.672 82.9016,-628.672 79.4017,-638.6721 86.4017,-638.672"/>
<text text-anchor="middle" x="118.6632" y="-650.8" font-family="Arial,Sans" font-size="14.00" fill="#000000">files_filtered</text>
</g>
<!-- p7 -->
<g id="node8" class="node">
<title>p7</title>
<ellipse fill="none" stroke="#000000" cx="674.9016" cy="-521.8" rx="39.4428" ry="18"/>
<text text-anchor="middle" x="674.9016" y="-517.6" font-family="Arial,Sans" font-size="14.00" fill="#000000">filtlong</text>
</g>
<!-- p6&#45;&gt;p7 -->
<g id="edge7" class="edge">
<title>p6&#45;&gt;p7</title>
<path fill="none" stroke="#000000" d="M126.9141,-603.9981C235.4022,-587.7249 514.961,-545.7911 627.2093,-528.9538"/>
<polygon fill="#000000" stroke="#000000" points="627.8524,-532.3966 637.2225,-527.4519 626.8139,-525.4741 627.8524,-532.3966"/>
<text text-anchor="middle" x="474.497" y="-562" font-family="Arial,Sans" font-size="14.00" fill="#000000">files_porechop</text>
</g>
<!-- p8 -->
<g id="node9" class="node">
<title>p8</title>
<ellipse fill="none" stroke="#000000" cx="66.9016" cy="-433" rx="3.5" ry="3.5"/>
<text text-anchor="middle" x="52.511" y="-440.7" font-family="Arial,Sans" font-size="14.00" fill="#000000">mix</text>
</g>
<!-- p6&#45;&gt;p8 -->
<g id="edge8" class="edge">
<title>p6&#45;&gt;p8</title>
<path fill="none" stroke="#000000" d="M81.2793,-592.5934C78.0813,-557.0952 71.0247,-478.7664 68.1535,-446.8969"/>
<polygon fill="#000000" stroke="#000000" points="71.6094,-446.2491 67.2262,-436.6035 64.6377,-446.8772 71.6094,-446.2491"/>
<text text-anchor="middle" x="130.9409" y="-517.6" font-family="Arial,Sans" font-size="14.00" fill="#000000">files_nanoplot_raw</text>
</g>
<!-- p7&#45;&gt;p8 -->
<g id="edge15" class="edge">
<title>p7&#45;&gt;p8</title>
<path fill="none" stroke="#000000" d="M635.5825,-520.0788C563.6232,-516.4602 413.7799,-506.6205 366.3826,-485.8 355.9149,-481.2018 357.3422,-473.6594 346.9016,-469 322.2999,-458.0208 133.4127,-439.3453 80.588,-434.2927"/>
<polygon fill="#000000" stroke="#000000" points="80.7506,-430.7925 70.4648,-433.3326 80.0896,-437.7612 80.7506,-430.7925"/>
<text text-anchor="middle" x="430.6611" y="-473.2" font-family="Arial,Sans" font-size="14.00" fill="#000000">files_nanoplot_filtered</text>
</g>
<!-- p10 -->
<g id="node10" class="node">
<title>p10</title>
<ellipse fill="none" stroke="#000000" cx="884.9016" cy="-433" rx="46.9284" ry="18"/>
<text text-anchor="middle" x="884.9016" y="-428.8" font-family="Arial,Sans" font-size="14.00" fill="#000000">unicycler</text>
</g>
<!-- p7&#45;&gt;p10 -->
<g id="edge9" class="edge">
<title>p7&#45;&gt;p10</title>
<path fill="none" stroke="#000000" d="M713.1397,-516.8208C743.091,-511.8591 785.1867,-502.4981 818.9016,-485.8 833.9659,-478.339 848.7648,-466.9818 860.5191,-456.7097"/>
<polygon fill="#000000" stroke="#000000" points="863.059,-459.132 868.136,-449.8328 858.3681,-453.9362 863.059,-459.132"/>
<text text-anchor="middle" x="897.9325" y="-473.2" font-family="Arial,Sans" font-size="14.00" fill="#000000">files_pre_unicycler</text>
</g>
<!-- p11 -->
<g id="node11" class="node">
<title>p11</title>
<ellipse fill="none" stroke="#000000" cx="1514.9016" cy="-433" rx="36.5575" ry="18"/>
<text text-anchor="middle" x="1514.9016" y="-428.8" font-family="Arial,Sans" font-size="14.00" fill="#000000">spades</text>
</g>
<!-- p7&#45;&gt;p11 -->
<g id="edge10" class="edge">
<title>p7&#45;&gt;p11</title>
<path fill="none" stroke="#000000" d="M714.2865,-519.6548C795.1428,-515.0587 985.6595,-503.2419 1144.9016,-485.8 1262.39,-472.9314 1400.0045,-451.6447 1469.6248,-440.4341"/>
<polygon fill="#000000" stroke="#000000" points="1470.4839,-443.8408 1479.7972,-438.7898 1469.3668,-436.9305 1470.4839,-443.8408"/>
<text text-anchor="middle" x="1323.5489" y="-473.2" font-family="Arial,Sans" font-size="14.00" fill="#000000">files_pre_spades</text>
</g>
<!-- p12 -->
<g id="node12" class="node">
<title>p12</title>
<ellipse fill="none" stroke="#000000" cx="1057.9016" cy="-433" rx="72.371" ry="18"/>
<text text-anchor="middle" x="1057.9016" y="-428.8" font-family="Arial,Sans" font-size="14.00" fill="#000000">spades_plasmid</text>
</g>
<!-- p7&#45;&gt;p12 -->
<g id="edge11" class="edge">
<title>p7&#45;&gt;p12</title>
<path fill="none" stroke="#000000" d="M713.7148,-518.5154C779.8655,-512.6363 911.5928,-499.6298 955.9016,-485.8 979.3996,-478.4657 1003.9541,-465.9268 1023.0819,-454.9085"/>
<polygon fill="#000000" stroke="#000000" points="1024.8932,-457.9036 1031.7356,-449.8146 1021.3423,-451.8711 1024.8932,-457.9036"/>
<text text-anchor="middle" x="1068.2144" y="-473.2" font-family="Arial,Sans" font-size="14.00" fill="#000000">files_pre_spades_plasmid</text>
</g>
<!-- p17 -->
<g id="node13" class="node">
<title>p17</title>
<ellipse fill="none" stroke="#000000" cx="280.9016" cy="-433" rx="29.0356" ry="18"/>
<text text-anchor="middle" x="280.9016" y="-428.8" font-family="Arial,Sans" font-size="14.00" fill="#000000">canu</text>
</g>
<!-- p7&#45;&gt;p17 -->
<g id="edge12" class="edge">
<title>p7&#45;&gt;p17</title>
<path fill="none" stroke="#000000" d="M635.889,-518.5069C602.608,-514.4287 554.2867,-505.4312 516.4962,-485.8 506.6124,-480.6657 507.9326,-473.8402 497.9016,-469 482.1248,-461.3873 377.4895,-446.1938 319.4758,-438.1969"/>
<polygon fill="#000000" stroke="#000000" points="319.9424,-434.7282 309.5597,-436.8375 318.9916,-441.6634 319.9424,-434.7282"/>
<text text-anchor="middle" x="558.1043" y="-473.2" font-family="Arial,Sans" font-size="14.00" fill="#000000">files_pre_canu</text>
</g>
<!-- p18 -->
<g id="node14" class="node">
<title>p18</title>
<ellipse fill="none" stroke="#000000" cx="715.9016" cy="-433" rx="44.0987" ry="18"/>
<text text-anchor="middle" x="715.9016" y="-428.8" font-family="Arial,Sans" font-size="14.00" fill="#000000">miniasm</text>
</g>
<!-- p7&#45;&gt;p18 -->
<g id="edge13" class="edge">
<title>p7&#45;&gt;p18</title>
<path fill="none" stroke="#000000" d="M690.7921,-505.3175C695.6275,-499.5312 700.5448,-492.7349 703.9016,-485.8 707.5876,-478.1848 710.1651,-469.3982 711.9578,-461.205"/>
<polygon fill="#000000" stroke="#000000" points="715.4161,-461.7531 713.8333,-451.2771 708.5378,-460.4536 715.4161,-461.7531"/>
<text text-anchor="middle" x="763.0005" y="-473.2" font-family="Arial,Sans" font-size="14.00" fill="#000000">files_pre_miniasm</text>
</g>
<!-- p20 -->
<g id="node15" class="node">
<title>p20</title>
<ellipse fill="none" stroke="#000000" cx="447.9016" cy="-433" rx="27" ry="18"/>
<text text-anchor="middle" x="447.9016" y="-428.8" font-family="Arial,Sans" font-size="14.00" fill="#000000">flye</text>
</g>
<!-- p7&#45;&gt;p20 -->
<g id="edge14" class="edge">
<title>p7&#45;&gt;p20</title>
<path fill="none" stroke="#000000" d="M651.898,-506.9585C642.499,-500.6748 631.632,-493.1233 622.1596,-485.8 613.1737,-478.8528 613.0139,-474.1721 602.9016,-469 565.2832,-449.7597 517.2883,-440.6595 484.7435,-436.4509"/>
<polygon fill="#000000" stroke="#000000" points="485.099,-432.9685 474.7526,-435.2496 484.2633,-439.9184 485.099,-432.9685"/>
<text text-anchor="middle" x="661.7726" y="-473.2" font-family="Arial,Sans" font-size="14.00" fill="#000000">files_pre_flye</text>
</g>
<!-- p9 -->
<g id="node16" class="node">
<title>p9</title>
<ellipse fill="none" stroke="#000000" cx="50.9016" cy="-344.2" rx="44.6665" ry="18"/>
<text text-anchor="middle" x="50.9016" y="-340" font-family="Arial,Sans" font-size="14.00" fill="#000000">nanoplot</text>
</g>
<!-- p8&#45;&gt;p9 -->
<g id="edge16" class="edge">
<title>p8&#45;&gt;p9</title>
<path fill="none" stroke="#000000" d="M66.2141,-429.1844C64.4641,-419.4719 59.7141,-393.1096 55.9641,-372.2971"/>
<polygon fill="#000000" stroke="#000000" points="59.3862,-371.5515 54.1683,-362.3306 52.4971,-372.7928 59.3862,-371.5515"/>
</g>
<!-- p23 -->
<g id="node17" class="node">
<title>p23</title>
<ellipse fill="none" stroke="#000000" cx="1362.9016" cy="-92.3" rx="3.5" ry="3.5"/>
<text text-anchor="middle" x="1348.511" y="-100" font-family="Arial,Sans" font-size="14.00" fill="#000000">mix</text>
</g>
<!-- p10&#45;&gt;p23 -->
<g id="edge17" class="edge">
<title>p10&#45;&gt;p23</title>
<path fill="none" stroke="#000000" d="M925.4843,-423.9403C941.4393,-420.6728 959.9604,-417.2419 976.9016,-415 1005.2797,-411.2447 1210.1406,-412.9636 1233.9016,-397 1255.6139,-382.4127 1259.9016,-370.3575 1259.9016,-344.2 1259.9016,-344.2 1259.9016,-344.2 1259.9016,-166.6 1259.9016,-123.1929 1320.8137,-102.6074 1348.9536,-95.4135"/>
<polygon fill="#000000" stroke="#000000" points="1350.048,-98.7521 1358.9896,-93.069 1348.4556,-91.9357 1350.048,-98.7521"/>
<text text-anchor="middle" x="1315.4942" y="-251.2" font-family="Arial,Sans" font-size="14.00" fill="#000000">assembly_unicycler</text>
</g>
<!-- p24 -->
<g id="node18" class="node">
<title>p24</title>
<ellipse fill="none" stroke="#000000" cx="739.9016" cy="-344.2" rx="3.5" ry="3.5"/>
<text text-anchor="middle" x="725.511" y="-351.9" font-family="Arial,Sans" font-size="14.00" fill="#000000">mix</text>
</g>
<!-- p10&#45;&gt;p24 -->
<g id="edge18" class="edge">
<title>p10&#45;&gt;p24</title>
<path fill="none" stroke="#000000" d="M881.5633,-415.0111C878.5424,-403.5486 872.9622,-389.2101 862.9016,-380.2 846.5865,-365.5886 782.6247,-352.1602 753.9464,-346.7362"/>
<polygon fill="#000000" stroke="#000000" points="754.2687,-343.2371 743.8015,-344.8762 753.0063,-350.1223 754.2687,-343.2371"/>
<text text-anchor="middle" x="948.9318" y="-384.4" font-family="Arial,Sans" font-size="14.00" fill="#000000">assembly_graph_unicycler</text>
</g>
<!-- p11&#45;&gt;p23 -->
<g id="edge20" class="edge">
<title>p11&#45;&gt;p23</title>
<path fill="none" stroke="#000000" d="M1549.3894,-426.7137C1583.1822,-420.0117 1631.7507,-408.7629 1646.9016,-397 1668.2206,-380.4482 1676.9016,-371.19 1676.9016,-344.2 1676.9016,-344.2 1676.9016,-344.2 1676.9016,-166.6 1676.9016,-103.9722 1437.3665,-94.0645 1376.7225,-92.5597"/>
<polygon fill="#000000" stroke="#000000" points="1376.4982,-89.0544 1366.4279,-92.3467 1376.3533,-96.0529 1376.4982,-89.0544"/>
<text text-anchor="middle" x="1747.2761" y="-251.2" font-family="Arial,Sans" font-size="14.00" fill="#000000">assembly_spades_simple</text>
</g>
<!-- p11&#45;&gt;p24 -->
<g id="edge21" class="edge">
<title>p11&#45;&gt;p24</title>
<path fill="none" stroke="#000000" d="M1484.7945,-422.5062C1468.6822,-416.2418 1448.8666,-407.4684 1432.6084,-397 1423.2127,-390.9503 1424.2263,-384.4749 1413.9016,-380.2 1350.8253,-354.0836 844.0685,-345.6833 753.6727,-344.3866"/>
<polygon fill="#000000" stroke="#000000" points="753.5065,-340.884 743.4591,-344.2455 753.4098,-347.8834 753.5065,-340.884"/>
<text text-anchor="middle" x="1499.5482" y="-384.4" font-family="Arial,Sans" font-size="14.00" fill="#000000">assembly_graph_spades</text>
</g>
<!-- p13 -->
<g id="node19" class="node">
<title>p13</title>
<ellipse fill="none" stroke="#000000" cx="1466.9016" cy="-344.2" rx="3.5" ry="3.5"/>
<text text-anchor="middle" x="1452.511" y="-351.9" font-family="Arial,Sans" font-size="14.00" fill="#000000">mix</text>
</g>
<!-- p11&#45;&gt;p13 -->
<g id="edge19" class="edge">
<title>p11&#45;&gt;p13</title>
<path fill="none" stroke="#000000" d="M1543.3707,-421.2105C1562.9217,-411.35 1583.4269,-396.3355 1571.9016,-380.2 1561.0244,-364.972 1506.2161,-352.1292 1480.3955,-346.8174"/>
<polygon fill="#000000" stroke="#000000" points="1480.8566,-343.3409 1470.368,-344.8372 1479.5005,-350.2083 1480.8566,-343.3409"/>
<text text-anchor="middle" x="1609.1113" y="-384.4" font-family="Arial,Sans" font-size="14.00" fill="#000000">files_spades</text>
</g>
<!-- p12&#45;&gt;p24 -->
<g id="edge23" class="edge">
<title>p12&#45;&gt;p24</title>
<path fill="none" stroke="#000000" d="M1052.3656,-414.841C1047.7701,-402.9967 1039.9974,-388.2853 1027.9016,-380.2 982.1378,-349.6098 804.7138,-345.0124 753.6953,-344.3219"/>
<polygon fill="#000000" stroke="#000000" points="753.6409,-340.8213 743.605,-344.2171 753.5681,-347.8209 753.6409,-340.8213"/>
<text text-anchor="middle" x="1136.2137" y="-384.4" font-family="Arial,Sans" font-size="14.00" fill="#000000">assembly_graph_spades_plasmid</text>
</g>
<!-- p12&#45;&gt;p13 -->
<g id="edge22" class="edge">
<title>p12&#45;&gt;p13</title>
<path fill="none" stroke="#000000" d="M1123.3468,-425.2513C1175.8301,-418.427 1244.8704,-407.901 1270.9016,-397 1282.6606,-392.0757 1282.4878,-385.347 1294.1512,-380.2 1349.5764,-355.7412 1422.4534,-347.5883 1452.7486,-345.1444"/>
<polygon fill="#000000" stroke="#000000" points="1453.225,-348.6194 1462.9501,-344.4157 1452.7261,-341.6372 1453.225,-348.6194"/>
<text text-anchor="middle" x="1353.7768" y="-384.4" font-family="Arial,Sans" font-size="14.00" fill="#000000">files_spades_plasmid</text>
</g>
<!-- p17&#45;&gt;p24 -->
<g id="edge29" class="edge">
<title>p17&#45;&gt;p24</title>
<path fill="none" stroke="#000000" d="M289.4358,-415.7756C296.4925,-403.5564 307.7425,-387.9948 322.4976,-380.2 374.1783,-352.8982 526.7,-367.5727 584.9016,-362.2 637.0662,-357.3846 698.8642,-349.5735 725.9777,-346.04"/>
<polygon fill="#000000" stroke="#000000" points="726.6158,-349.4863 736.0739,-344.712 725.7028,-342.5461 726.6158,-349.4863"/>
<text text-anchor="middle" x="385.1036" y="-384.4" font-family="Arial,Sans" font-size="14.00" fill="#000000">assembly_graph_canu</text>
</g>
<!-- p21 -->
<g id="node23" class="node">
<title>p21</title>
<ellipse fill="none" stroke="#000000" cx="374.9016" cy="-255.4" rx="3.5" ry="3.5"/>
<text text-anchor="middle" x="360.511" y="-263.1" font-family="Arial,Sans" font-size="14.00" fill="#000000">mix</text>
</g>
<!-- p17&#45;&gt;p21 -->
<g id="edge28" class="edge">
<title>p17&#45;&gt;p21</title>
<path fill="none" stroke="#000000" d="M255.2497,-424.0598C211.4453,-407.3749 129.8224,-369.2607 160.931,-326.2 185.4357,-292.2803 318.3558,-265.618 361.4248,-257.7638"/>
<polygon fill="#000000" stroke="#000000" points="362.128,-261.1937 371.3618,-255.9988 360.9038,-254.3016 362.128,-261.1937"/>
<text text-anchor="middle" x="224.8869" y="-340" font-family="Arial,Sans" font-size="14.00" fill="#000000">files_unpolished_canu</text>
</g>
<!-- p18&#45;&gt;p24 -->
<g id="edge31" class="edge">
<title>p18&#45;&gt;p24</title>
<path fill="none" stroke="#000000" d="M713.7249,-414.5347C713.113,-404.2198 713.3599,-391.2564 716.7052,-380.2 719.5406,-370.8285 725.597,-361.5724 730.8102,-354.7929"/>
<polygon fill="#000000" stroke="#000000" points="733.6661,-356.8327 737.3717,-346.907 728.2851,-352.3555 733.6661,-356.8327"/>
<text text-anchor="middle" x="789.9998" y="-384.4" font-family="Arial,Sans" font-size="14.00" fill="#000000">assembly_graph_miniasm</text>
</g>
<!-- p19 -->
<g id="node24" class="node">
<title>p19</title>
<ellipse fill="none" stroke="#000000" cx="543.9016" cy="-344.2" rx="32.4634" ry="18"/>
<text text-anchor="middle" x="543.9016" y="-340" font-family="Arial,Sans" font-size="14.00" fill="#000000">racon</text>
</g>
<!-- p18&#45;&gt;p19 -->
<g id="edge30" class="edge">
<title>p18&#45;&gt;p19</title>
<path fill="none" stroke="#000000" d="M677.543,-423.8958C656.2719,-417.9534 629.8019,-409.0442 608.0376,-397 593.3757,-388.8862 578.8115,-377.2614 567.2764,-366.9838"/>
<polygon fill="#000000" stroke="#000000" points="569.5482,-364.3183 559.8106,-360.1435 564.8194,-369.4796 569.5482,-364.3183"/>
<text text-anchor="middle" x="659.8336" y="-384.4" font-family="Arial,Sans" font-size="14.00" fill="#000000">files_noconsensus</text>
</g>
<!-- p20&#45;&gt;p24 -->
<g id="edge34" class="edge">
<title>p20&#45;&gt;p24</title>
<path fill="none" stroke="#000000" d="M447.1879,-414.9861C447.761,-403.3619 450.5997,-388.8485 460.161,-380.2 465.1724,-375.667 669.6413,-352.1726 725.7743,-345.7975"/>
<polygon fill="#000000" stroke="#000000" points="726.4846,-349.2396 736.0272,-344.6364 725.6968,-342.284 726.4846,-349.2396"/>
<text text-anchor="middle" x="520.7719" y="-384.4" font-family="Arial,Sans" font-size="14.00" fill="#000000">assembly_graph_flye</text>
</g>
<!-- p20&#45;&gt;p21 -->
<g id="edge33" class="edge">
<title>p20&#45;&gt;p21</title>
<path fill="none" stroke="#000000" d="M421.0436,-430.3857C382.5504,-426.0211 314.6893,-415.8159 299.9016,-397 264.2275,-351.6082 335.6819,-286.7546 364.0178,-263.8241"/>
<polygon fill="#000000" stroke="#000000" points="366.2906,-266.4896 371.9961,-257.5623 361.9687,-260.9831 366.2906,-266.4896"/>
<text text-anchor="middle" x="365.5552" y="-340" font-family="Arial,Sans" font-size="14.00" fill="#000000">files_unpolished_flye</text>
</g>
<!-- p26 -->
<g id="node26" class="node">
<title>p26</title>
<ellipse fill="none" stroke="#000000" cx="1362.9016" cy="-18" rx="88.6255" ry="18"/>
<text text-anchor="middle" x="1362.9016" y="-13.8" font-family="Arial,Sans" font-size="14.00" fill="#000000">format_final_output</text>
</g>
<!-- p23&#45;&gt;p26 -->
<g id="edge37" class="edge">
<title>p23&#45;&gt;p26</title>
<path fill="none" stroke="#000000" d="M1362.9016,-88.7164C1362.9016,-81.0595 1362.9016,-62.4817 1362.9016,-46.289"/>
<polygon fill="#000000" stroke="#000000" points="1366.4017,-46.1312 1362.9016,-36.1313 1359.4017,-46.1313 1366.4017,-46.1312"/>
<text text-anchor="middle" x="1413.4416" y="-58.2" font-family="Arial,Sans" font-size="14.00" fill="#000000">assembly_merged</text>
</g>
<!-- p25 -->
<g id="node27" class="node">
<title>p25</title>
<ellipse fill="none" stroke="#000000" cx="739.9016" cy="-255.4" rx="97.8382" ry="18"/>
<text text-anchor="middle" x="739.9016" y="-251.2" font-family="Arial,Sans" font-size="14.00" fill="#000000">draw_assembly_graph</text>
</g>
<!-- p24&#45;&gt;p25 -->
<g id="edge38" class="edge">
<title>p24&#45;&gt;p25</title>
<path fill="none" stroke="#000000" d="M739.9016,-340.3844C739.9016,-330.7163 739.9016,-304.55 739.9016,-283.7826"/>
<polygon fill="#000000" stroke="#000000" points="743.4017,-283.5306 739.9016,-273.5306 736.4017,-283.5307 743.4017,-283.5306"/>
</g>
<!-- p14 -->
<g id="node20" class="node">
<title>p14</title>
<ellipse fill="none" stroke="#000000" cx="1466.9016" cy="-255.4" rx="78.1694" ry="18"/>
<text text-anchor="middle" x="1466.9016" y="-251.2" font-family="Arial,Sans" font-size="14.00" fill="#000000">links_scaffolding</text>
</g>
<!-- p13&#45;&gt;p14 -->
<g id="edge24" class="edge">
<title>p13&#45;&gt;p14</title>
<path fill="none" stroke="#000000" d="M1466.9016,-340.3844C1466.9016,-330.7163 1466.9016,-304.55 1466.9016,-283.7826"/>
<polygon fill="#000000" stroke="#000000" points="1470.4017,-283.5306 1466.9016,-273.5306 1463.4017,-283.5307 1470.4017,-283.5306"/>
</g>
<!-- p15 -->
<g id="node21" class="node">
<title>p15</title>
<ellipse fill="none" stroke="#000000" cx="1401.9016" cy="-166.6" rx="43.9964" ry="18"/>
<text text-anchor="middle" x="1401.9016" y="-162.4" font-family="Arial,Sans" font-size="14.00" fill="#000000">gapfiller</text>
</g>
<!-- p14&#45;&gt;p15 -->
<g id="edge25" class="edge">
<title>p14&#45;&gt;p15</title>
<path fill="none" stroke="#000000" d="M1453.7478,-237.43C1444.1968,-224.3817 1431.1408,-206.5453 1420.5203,-192.036"/>
<polygon fill="#000000" stroke="#000000" points="1423.3242,-189.9409 1414.5933,-183.9389 1417.6757,-194.0755 1423.3242,-189.9409"/>
<text text-anchor="middle" x="1469.065" y="-206.8" font-family="Arial,Sans" font-size="14.00" fill="#000000">files_links</text>
</g>
<!-- p15&#45;&gt;p23 -->
<g id="edge26" class="edge">
<title>p15&#45;&gt;p23</title>
<path fill="none" stroke="#000000" d="M1392.6591,-148.9919C1385.4849,-135.3241 1375.7211,-116.7228 1369.3657,-104.615"/>
<polygon fill="#000000" stroke="#000000" points="1372.4062,-102.8767 1364.6595,-95.649 1366.2081,-106.1301 1372.4062,-102.8767"/>
<text text-anchor="middle" x="1435.1625" y="-118" font-family="Arial,Sans" font-size="14.00" fill="#000000">assembly_gapfiller</text>
</g>
<!-- p16 -->
<g id="node22" class="node">
<title>p16</title>
<ellipse fill="none" stroke="#000000" cx="269.9016" cy="-521.8" rx="76.4034" ry="18"/>
<text text-anchor="middle" x="269.9016" y="-517.6" font-family="Arial,Sans" font-size="14.00" fill="#000000">canu_parameters</text>
</g>
<!-- p16&#45;&gt;p17 -->
<g id="edge27" class="edge">
<title>p16&#45;&gt;p17</title>
<path fill="none" stroke="#000000" d="M269.0116,-503.623C268.8015,-493.3983 269.0204,-480.429 270.6968,-469 271.0983,-466.2623 271.6488,-463.439 272.2874,-460.6344"/>
<polygon fill="#000000" stroke="#000000" points="275.7297,-461.3054 274.8786,-450.7448 268.9583,-459.5311 275.7297,-461.3054"/>
<text text-anchor="middle" x="309.004" y="-473.2" font-family="Arial,Sans" font-size="14.00" fill="#000000">canu_settings</text>
</g>
<!-- p22 -->
<g id="node25" class="node">
<title>p22</title>
<ellipse fill="none" stroke="#000000" cx="798.9016" cy="-166.6" rx="30.7789" ry="18"/>
<text text-anchor="middle" x="798.9016" y="-162.4" font-family="Arial,Sans" font-size="14.00" fill="#000000">pilon</text>
</g>
<!-- p21&#45;&gt;p22 -->
<g id="edge35" class="edge">
<title>p21&#45;&gt;p22</title>
<path fill="none" stroke="#000000" d="M378.5671,-254.6323C411.7909,-247.6741 661.9061,-195.2915 759.7922,-174.7908"/>
<polygon fill="#000000" stroke="#000000" points="760.5261,-178.2131 769.5963,-172.7375 759.0911,-171.3618 760.5261,-178.2131"/>
<text text-anchor="middle" x="654.8427" y="-206.8" font-family="Arial,Sans" font-size="14.00" fill="#000000">files_pilon</text>
</g>
<!-- p19&#45;&gt;p21 -->
<g id="edge32" class="edge">
<title>p19&#45;&gt;p21</title>
<path fill="none" stroke="#000000" d="M520.0464,-331.6655C483.5808,-312.5049 415.2682,-276.6104 387.3106,-261.9203"/>
<polygon fill="#000000" stroke="#000000" points="388.7222,-258.7082 378.2418,-257.1551 385.4661,-264.9049 388.7222,-258.7082"/>
<text text-anchor="middle" x="540.2172" y="-295.6" font-family="Arial,Sans" font-size="14.00" fill="#000000">files_unpolished_racon</text>
</g>
<!-- p22&#45;&gt;p23 -->
<g id="edge36" class="edge">
<title>p22&#45;&gt;p23</title>
<path fill="none" stroke="#000000" d="M829.1123,-161.7261C890.8099,-151.8681 1035.7872,-129.1926 1158.0208,-113.8 1229.758,-104.7663 1315.963,-96.5924 1349.0478,-93.554"/>
<polygon fill="#000000" stroke="#000000" points="1349.6151,-97.017 1359.2569,-92.6255 1348.981,-90.0458 1349.6151,-97.017"/>
<text text-anchor="middle" x="1201.842" y="-118" font-family="Arial,Sans" font-size="14.00" fill="#000000">assembly_pilon</text>
</g>
</g>
</svg>

